<svg width="434" height="434" viewBox="0 0 434 434" fill="none" xmlns="http://www.w3.org/2000/svg">
<g id="calendar">
<path id="Vector" d="M406.875 40.6875H305.156V6.78125C305.156 3.05156 302.105 0 298.375 0C294.645 0 291.594 3.05156 291.594 6.78125V40.6875H149.188V6.78125C149.188 3.05156 146.136 0 142.406 0C138.677 0 135.625 3.05156 135.625 6.78125V40.6875H27.125C12.1215 40.6875 0 52.8937 0 67.8125V406.875C0 421.879 12.1215 434 27.125 434H406.875C421.879 434 434 421.879 434 406.875V67.8125C434 52.8937 421.879 40.6875 406.875 40.6875ZM27.125 54.25H135.625V74.5938C135.625 78.3234 138.677 81.375 142.406 81.375C146.136 81.375 149.188 78.3234 149.188 74.5938V54.25H291.594V74.5938C291.594 78.3234 294.645 81.375 298.375 81.375C302.105 81.375 305.156 78.3234 305.156 74.5938V54.25H406.875C414.334 54.25 420.438 60.3531 420.438 67.8125V115.281H13.5625V67.8125C13.5625 60.3531 19.6656 54.25 27.125 54.25ZM420.438 406.875C420.438 414.334 414.334 420.438 406.875 420.438H27.125C19.6656 420.438 13.5625 414.334 13.5625 406.875V128.844H420.438V406.875Z" fill="#303949"/>
<path id="Vector_2" d="M122.062 162.75H67.8125V217H122.062V162.75ZM108.5 203.438H81.375V176.312H108.5V203.438Z" fill="#303949"/>
<path id="Vector_3" d="M244.125 162.75H189.875V217H244.125V162.75ZM230.562 203.438H203.438V176.312H230.562V203.438Z" fill="#303949"/>
<path id="Vector_4" d="M366.188 162.75H311.938V217H366.188V162.75ZM352.625 203.438H325.5V176.312H352.625V203.438Z" fill="#303949"/>
<path id="Vector_5" d="M122.062 244.125H67.8125V298.375H122.062V244.125ZM108.5 284.812H81.375V257.688H108.5V284.812Z" fill="#303949"/>
<path id="Vector_6" d="M244.125 244.125H189.875V298.375H244.125V244.125ZM230.562 284.812H203.438V257.688H230.562V284.812Z" fill="#303949"/>
<path id="Vector_7" d="M122.062 325.5H67.8125V379.75H122.062V325.5ZM108.5 366.188H81.375V339.062H108.5V366.188Z" fill="#303949"/>
<path id="Vector_8" d="M244.125 325.5H189.875V379.75H244.125V325.5ZM230.562 366.188H203.438V339.062H230.562V366.188Z" fill="#303949"/>
<path id="Vector_9" d="M366.188 244.125H311.938V298.375H366.188V244.125ZM352.625 284.812H325.5V257.688H352.625V284.812Z" fill="#303949"/>
<path id="Vector_10" d="M366.188 325.5H311.938V379.75H366.188V325.5ZM352.625 366.188H325.5V339.062H352.625V366.188Z" fill="#303949"/>
</g>
</svg>
