<svg width="320" height="464" viewBox="0 0 320 464" fill="none" xmlns="http://www.w3.org/2000/svg">
<g id="certificate">
<path id="Vector" d="M319.91 106.811C319.91 106.087 319.729 105.453 319.548 104.82C319.457 104.639 319.457 104.367 319.367 104.186C319.005 103.462 318.553 102.738 318.011 102.104C318.011 102.104 293.235 77.2112 268.46 52.3184C256.072 39.8268 243.685 27.4256 234.281 18.1021C227.409 11.2227 222.888 6.6967 219.633 3.8906C219.542 3.80008 219.542 3.80008 219.452 3.70956H219.361C214.84 -0.182764 213.122 -0.63536 211.043 0.63191H22.4244C10.0367 0.63191 0 10.6795 0 23.0807V389.231C0 395.477 2.44137 401.361 6.872 405.887C11.2122 410.232 17.2704 412.766 23.419 412.766H118.542C122.521 412.766 125.776 409.507 125.776 405.525C125.776 401.542 122.521 398.283 118.542 398.283H23.419C21.0681 398.283 18.7172 397.287 17.0896 395.658C15.3716 393.938 14.4674 391.675 14.4674 389.231V22.9902C14.4674 18.5547 17.9938 15.0245 22.4244 15.0245H206.612C206.883 31.5895 206.612 77.3922 206.25 107.083C206.25 108.983 206.974 110.884 208.33 112.242C209.686 113.6 211.585 114.415 213.484 114.415H305.533V390.408C305.533 392.49 304.719 394.481 303.272 395.93C301.825 397.378 299.836 398.193 297.756 398.193H294.501C290.523 398.193 287.268 401.451 287.268 405.434C287.268 409.417 290.523 412.676 294.501 412.676H297.756C303.724 412.676 309.33 410.322 313.49 406.158C317.649 401.994 320 396.292 320 390.408V107.264C319.91 107.083 319.91 106.992 319.91 106.811ZM220.718 100.022C221.079 61.9134 221.26 39.2836 221.079 25.6152C237.988 42.5423 269.003 73.681 295.225 100.022H220.718Z" fill="#303949"/>
<path id="Vector_2" d="M264.301 358.183C264.029 357.278 263.577 356.463 263.035 355.739C273.524 343.157 279.763 327.044 279.763 309.393C279.763 269.384 247.392 236.978 207.426 236.978C167.46 236.978 135.089 269.384 135.089 309.393C135.089 328.04 142.142 344.967 153.716 357.73L129.302 441.551C128.488 444.267 129.392 447.254 131.563 449.064C133.733 450.875 136.807 451.327 139.339 450.06L163.933 438.383L179.395 460.832C180.752 462.823 183.012 464 185.363 464C185.815 464 186.177 464 186.629 463.91C189.432 463.457 191.693 461.375 192.416 458.659L209.053 396.654L225.691 458.659C226.414 461.375 228.675 463.457 231.478 463.91C231.93 464 232.292 464 232.744 464C235.095 464 237.355 462.823 238.712 460.922L254.174 438.564L278.768 450.151C281.3 451.327 284.374 450.965 286.544 449.064C288.714 447.254 289.619 444.267 288.805 441.551L264.301 358.183ZM207.516 250.827C239.797 250.827 266.109 277.168 266.109 309.484C266.109 341.799 239.797 368.14 207.516 368.14C175.236 368.14 148.923 341.799 148.923 309.484C148.923 277.078 175.236 250.827 207.516 250.827ZM182.47 439.741L172.433 425.167C170.444 422.271 166.556 421.184 163.391 422.723L147.748 430.146L165.742 368.502C175.146 375.201 186.177 379.636 198.203 381.175L182.47 439.741ZM254.626 422.904C251.461 421.365 247.573 422.452 245.584 425.348L235.456 439.922L219.633 380.813C231.568 378.821 242.509 373.843 251.642 366.692L270.268 430.236L254.626 422.904Z" fill="#303949"/>
<path id="Vector_3" d="M187.624 304.052C185.544 301.337 181.656 300.703 178.943 302.785C176.231 304.867 175.598 308.759 177.677 311.475L197.57 337.997C198.745 339.536 200.554 340.532 202.543 340.532C202.634 340.532 202.724 340.532 202.905 340.532C204.984 340.441 206.883 339.264 207.878 337.545L237.717 287.759C239.525 284.772 238.531 280.97 235.547 279.25C232.563 277.44 228.765 278.436 227.047 281.423L202.001 323.243L187.624 304.052Z" fill="#303949"/>
</g>
</svg>
