<svg width="110" height="110" viewBox="0 0 110 110" fill="none" xmlns="http://www.w3.org/2000/svg">
<path id="Vector" d="M108.653 102.188L82.2082 75.7429C88.7633 67.751 92.7143 57.5143 92.7143 46.3571C92.7143 20.7653 71.949 0 46.3571 0C20.7429 0 0 20.7653 0 46.3571C0 71.949 20.7429 92.7143 46.3571 92.7143C57.5143 92.7143 67.7286 88.7857 75.7204 82.2306L102.165 108.653C103.961 110.449 106.857 110.449 108.653 108.653C110.449 106.88 110.449 103.961 108.653 102.188ZM46.3571 83.4878C25.8612 83.4878 9.20408 66.8306 9.20408 46.3571C9.20408 25.8837 25.8612 9.20408 46.3571 9.20408C66.8306 9.20408 83.5102 25.8837 83.5102 46.3571C83.5102 66.8306 66.8306 83.4878 46.3571 83.4878Z" fill="#303949"/>
</svg>
