<svg width="441" height="437" viewBox="0 0 441 437" fill="none" xmlns="http://www.w3.org/2000/svg">
<g id="shapes">
<g id="Group">
<g id="Group_2">
<g id="Group_3">
<path id="Vector" d="M239.452 324.226H197.196C177.779 324.226 161.982 340.035 161.982 359.468V401.758C161.982 421.19 177.779 437 197.196 437H239.452C258.869 437 274.665 421.19 274.665 401.758V359.468C274.665 340.035 258.869 324.226 239.452 324.226ZM260.58 401.758C260.58 413.416 251.101 422.903 239.452 422.903H197.196C185.547 422.903 176.068 413.416 176.068 401.758V359.468C176.068 347.81 185.547 338.323 197.196 338.323H239.452C251.101 338.323 260.58 347.81 260.58 359.468V401.758Z" fill="#303949"/>
<path id="Vector_2" d="M218.324 112.774C249.389 112.774 274.665 87.4775 274.665 56.3871C274.665 25.2967 249.389 0 218.324 0C187.258 0 161.982 25.2967 161.982 56.3871C161.982 87.4775 187.258 112.774 218.324 112.774ZM218.324 14.0968C241.628 14.0968 260.58 33.064 260.58 56.3871C260.58 79.7102 241.628 98.6774 218.324 98.6774C195.019 98.6774 176.068 79.7102 176.068 56.3871C176.068 33.064 195.019 14.0968 218.324 14.0968Z" fill="#303949"/>
<path id="Vector_3" d="M112.683 162.113H0V274.887H112.683V162.113ZM98.5978 260.79H14.0854V176.21H98.5978V260.79Z" fill="#303949"/>
<path id="Vector_4" d="M441 274.887L380.306 153.401L319.612 274.887H441ZM418.21 260.79H342.402L380.306 184.921L418.21 260.79Z" fill="#303949"/>
<path id="Vector_5" d="M363.361 146.325L375.975 140.03C357.973 103.893 327.845 74.7834 291.131 58.0717L285.3 70.8997C319.084 86.2793 346.804 113.07 363.361 146.325Z" fill="#303949"/>
<path id="Vector_6" d="M151.348 70.9068L145.516 58.0787C106.936 75.6362 75.9626 106.536 58.2714 145.084L71.075 150.962C87.3436 115.495 115.853 87.0687 151.348 70.9068Z" fill="#303949"/>
<path id="Vector_7" d="M285.814 365.861L291.688 378.675C329.993 361.068 360.784 330.259 378.376 291.916L365.573 286.038C349.382 321.322 321.063 349.663 285.814 365.861Z" fill="#303949"/>
<path id="Vector_8" d="M71.082 286.045L58.2783 291.923C75.871 330.259 106.655 361.075 144.967 378.682L150.841 365.868C115.585 349.663 87.2661 321.322 71.082 286.045Z" fill="#303949"/>
<path id="Vector_9" d="M218.324 190.306C202.788 190.306 190.153 202.951 190.153 218.5C190.153 234.049 202.788 246.694 218.324 246.694C233.86 246.694 246.495 234.049 246.495 218.5C246.495 202.951 233.86 190.306 218.324 190.306ZM218.324 232.597C210.556 232.597 204.238 226.274 204.238 218.5C204.238 210.726 210.556 204.403 218.324 204.403C226.092 204.403 232.409 210.726 232.409 218.5C232.409 226.274 226.092 232.597 218.324 232.597Z" fill="#303949"/>
<path id="Vector_10" d="M295.793 225.548V211.452H281.293C279.933 199.237 275.095 188.079 267.799 178.951L278.081 168.661L268.123 158.694L257.84 168.985C248.72 161.683 237.571 156.841 225.366 155.48V140.968H211.281V155.48C199.076 156.841 187.927 161.683 178.807 168.985L168.525 158.694L158.566 168.661L168.849 178.951C161.553 188.079 156.714 199.237 155.355 211.452H140.854V225.548H155.355C156.714 237.763 161.553 248.921 168.849 258.048L158.566 268.339L168.525 278.306L178.807 268.015C187.927 275.317 199.076 280.159 211.281 281.52V296.032H225.366V281.52C237.571 280.159 248.72 275.317 257.84 268.015L268.123 278.306L278.081 268.339L267.799 258.048C275.095 248.921 279.933 237.763 281.293 225.548H295.793ZM218.324 267.839C191.146 267.839 169.025 245.7 169.025 218.5C169.025 191.3 191.146 169.161 218.324 169.161C245.502 169.161 267.623 191.3 267.623 218.5C267.623 245.7 245.502 267.839 218.324 267.839Z" fill="#303949"/>
</g>
</g>
</g>
</g>
</svg>
