<svg xmlns="http://www.w3.org/2000/svg" width="18" height="21" viewBox="0 0 18 21">
  <metadata><?xpacket begin="﻿" id="W5M0MpCehiHzreSzNTczkc9d"?>
<x:xmpmeta xmlns:x="adobe:ns:meta/" x:xmptk="Adobe XMP Core 5.6-c140 79.160451, 2017/05/06-01:08:21        ">
   <rdf:RDF xmlns:rdf="http://www.w3.org/1999/02/22-rdf-syntax-ns#">
      <rdf:Description rdf:about=""/>
   </rdf:RDF>
</x:xmpmeta>
                                                                                                    
                                                                                                    
                                                                                                    
                                                                                                    
                                                                                                    
                                                                                                    
                                                                                                    
                                                                                                    
                                                                                                    
                                                                                                    
                                                                                                    
                                                                                                    
                                                                                                    
                                                                                                    
                                                                                                    
                                                                                                    
                                                                                                    
                                                                                                    
                                                                                                    
                                                                                                    
                           
<?xpacket end="w"?></metadata>
<defs>
    <style>
      .cls-1 {
        fill: #bcbcbc;
        fill-rule: evenodd;
      }
    </style>
  </defs>
  <path id="Ютуб_цвет_можно_изменить_" data-name="Ютуб (цвет можно изменить)" class="cls-1" d="M572.222,8803.36h-1.185l0.006-.67a0.549,0.549,0,0,1,.558-0.54h0.075a0.55,0.55,0,0,1,.56.54Zm-4.443-1.44a0.5,0.5,0,0,0-.546.44v3.25a0.56,0.56,0,0,0,1.094,0v-3.25A0.506,0.506,0,0,0,567.779,8801.92Zm7.215-1.82v6.19a2.834,2.834,0,0,1-2.942,2.7h-12.1a2.834,2.834,0,0,1-2.943-2.7v-6.19a2.841,2.841,0,0,1,2.943-2.7h12.1A2.841,2.841,0,0,1,574.994,8800.1Zm-14.236,6.87v-6.53l1.5,0.01v-0.97l-4-.01v0.95l1.248,0.01v6.54h1.251Zm4.5-5.55H564v3.48a5.832,5.832,0,0,1,0,.84c-0.1.27-.559,0.56-0.737,0.03a6.894,6.894,0,0,1,0-.85l0-3.5h-1.244l0,3.45c0,0.53-.012.92,0,1.1a1.093,1.093,0,0,0,.321.9,1.533,1.533,0,0,0,1.911-.63l0,0.72h1v-5.54h0Zm4,3.98,0-2.89c0-1.11-.851-1.77-2-0.88l0-2.15H566L566,8806.92l1.028-.02,0.093-.46C568.432,8807.61,569.257,8806.81,569.255,8805.4Zm3.914-.38h-0.937c0,0.04,0,.08,0,0.13v0.51a0.5,0.5,0,0,1-.512.49h-0.184a0.5,0.5,0,0,1-.513-0.49v-1.34h2.148v-0.79a11.882,11.882,0,0,0-.064-1.47c-0.154-1.04-1.653-1.21-2.411-.68a1.4,1.4,0,0,0-.524.69,3.781,3.781,0,0,0-.16,1.23v1.72C570.009,8807.9,573.6,8807.49,573.169,8805.02Zm-4.81-9.38a0.892,0.892,0,0,0,.3.37,0.9,0.9,0,0,0,.512.14,0.8,0.8,0,0,0,.479-0.15,1.122,1.122,0,0,0,.351-0.44l-0.024.48h1.394v-5.76h-1.1v4.48a0.457,0.457,0,0,1-.914,0v-4.48h-1.146v3.88c0,0.5.01,0.83,0.025,1A1.758,1.758,0,0,0,568.359,8795.64Zm-4.224-3.26a4.767,4.767,0,0,1,.141-1.3,1.4,1.4,0,0,1,.513-0.74,1.505,1.505,0,0,1,.945-0.29,1.664,1.664,0,0,1,.83.19,1.317,1.317,0,0,1,.535.47,1.762,1.762,0,0,1,.258.6,4.642,4.642,0,0,1,.069.94v1.46a7.686,7.686,0,0,1-.064,1.18,1.864,1.864,0,0,1-.275.7,1.309,1.309,0,0,1-.537.48,1.809,1.809,0,0,1-.756.15,2.135,2.135,0,0,1-.806-0.13,1.1,1.1,0,0,1-.514-0.4,1.723,1.723,0,0,1-.262-0.65,5.971,5.971,0,0,1-.077-1.13v-1.53h0Zm1.092,2.29a0.555,0.555,0,1,0,1.107,0v-3.07a0.555,0.555,0,1,0-1.107,0v3.07Zm-3.859,1.55h1.316v-4.42l1.554-3.79H562.8l-0.827,2.82-0.837-2.83h-1.424l1.653,3.8Z" transform="translate(-557 -8788)"/>
</svg>
