<svg xmlns="http://www.w3.org/2000/svg" width="10" height="18" viewBox="0 0 10 18">
  <metadata><?xpacket begin="﻿" id="W5M0MpCehiHzreSzNTczkc9d"?>
<x:xmpmeta xmlns:x="adobe:ns:meta/" x:xmptk="Adobe XMP Core 5.6-c140 79.160451, 2017/05/06-01:08:21        ">
   <rdf:RDF xmlns:rdf="http://www.w3.org/1999/02/22-rdf-syntax-ns#">
      <rdf:Description rdf:about=""/>
   </rdf:RDF>
</x:xmpmeta>
                                                                                                    
                                                                                                    
                                                                                                    
                                                                                                    
                                                                                                    
                                                                                                    
                                                                                                    
                                                                                                    
                                                                                                    
                                                                                                    
                                                                                                    
                                                                                                    
                                                                                                    
                                                                                                    
                                                                                                    
                                                                                                    
                                                                                                    
                                                                                                    
                                                                                                    
                                                                                                    
                           
<?xpacket end="w"?></metadata>
<defs>
    <style>
      .cls-1 {
        fill: #bcbcbc;
        fill-rule: evenodd;
      }
    </style>
  </defs>
  <path id="Facebook_цвет_можно_изменить_" data-name="Facebook (цвет можно изменить)" class="cls-1" d="M398.617,8790h-2.4a4.154,4.154,0,0,0-4.435,4.43v2.04h-2.411a0.377,0.377,0,0,0-.377.37v2.96a0.368,0.368,0,0,0,.377.36h2.411v7.47a0.369,0.369,0,0,0,.377.37h3.146a0.37,0.37,0,0,0,.377-0.37v-7.47H398.5a0.368,0.368,0,0,0,.377-0.36v-2.96a0.36,0.36,0,0,0-.111-0.26,0.377,0.377,0,0,0-.266-0.11h-2.82v-1.73c0-.83.2-1.26,1.317-1.26h1.616a0.367,0.367,0,0,0,.376-0.36v-2.75A0.376,0.376,0,0,0,398.617,8790Z" transform="translate(-389 -8790)"/>
</svg>
