<svg xmlns="http://www.w3.org/2000/svg" width="20" height="16" viewBox="0 0 20 16">
  <metadata><?xpacket begin="﻿" id="W5M0MpCehiHzreSzNTczkc9d"?>
<x:xmpmeta xmlns:x="adobe:ns:meta/" x:xmptk="Adobe XMP Core 5.6-c140 79.160451, 2017/05/06-01:08:21        ">
   <rdf:RDF xmlns:rdf="http://www.w3.org/1999/02/22-rdf-syntax-ns#">
      <rdf:Description rdf:about=""/>
   </rdf:RDF>
</x:xmpmeta>
                                                                                                    
                                                                                                    
                                                                                                    
                                                                                                    
                                                                                                    
                                                                                                    
                                                                                                    
                                                                                                    
                                                                                                    
                                                                                                    
                                                                                                    
                                                                                                    
                                                                                                    
                                                                                                    
                                                                                                    
                                                                                                    
                                                                                                    
                                                                                                    
                                                                                                    
                                                                                                    
                           
<?xpacket end="w"?></metadata>
<defs>
    <style>
      .cls-1 {
        fill: #bcbcbc;
        fill-rule: evenodd;
      }
    </style>
  </defs>
  <path id="Твиттер_цвет_можно_изменить_" data-name="Твиттер (цвет можно изменить)" class="cls-1" d="M458.444,8791.29a8.347,8.347,0,0,1-2.606.98,4.087,4.087,0,0,0-6.991,3.69,11.7,11.7,0,0,1-8.455-4.23,3.981,3.981,0,0,0-.554,2.03,4.022,4.022,0,0,0,1.824,3.37,4.038,4.038,0,0,1-1.858-.51v0.05a4.073,4.073,0,0,0,3.29,3.97,4.257,4.257,0,0,1-1.08.14,4.9,4.9,0,0,1-.773-0.07,4.1,4.1,0,0,0,3.831,2.8,8.27,8.27,0,0,1-5.094,1.73,7.924,7.924,0,0,1-.979-0.05,11.713,11.713,0,0,0,6.289,1.82,11.51,11.51,0,0,0,11.671-11.51l-0.013-.52a8.226,8.226,0,0,0,2.05-2.09,8.083,8.083,0,0,1-2.355.63A4.066,4.066,0,0,0,458.444,8791.29Z" transform="translate(-439 -8791)"/>
</svg>
