<svg xmlns="http://www.w3.org/2000/svg" width="19" height="19" viewBox="0 0 19 19">
  <metadata><?xpacket begin="﻿" id="W5M0MpCehiHzreSzNTczkc9d"?>
<x:xmpmeta xmlns:x="adobe:ns:meta/" x:xmptk="Adobe XMP Core 5.6-c140 79.160451, 2017/05/06-01:08:21        ">
   <rdf:RDF xmlns:rdf="http://www.w3.org/1999/02/22-rdf-syntax-ns#">
      <rdf:Description rdf:about=""/>
   </rdf:RDF>
</x:xmpmeta>
                                                                                                    
                                                                                                    
                                                                                                    
                                                                                                    
                                                                                                    
                                                                                                    
                                                                                                    
                                                                                                    
                                                                                                    
                                                                                                    
                                                                                                    
                                                                                                    
                                                                                                    
                                                                                                    
                                                                                                    
                                                                                                    
                                                                                                    
                                                                                                    
                                                                                                    
                                                                                                    
                           
<?xpacket end="w"?></metadata>
<defs>
    <style>
      .cls-1 {
        fill: #bcbcbc;
        fill-rule: evenodd;
      }
    </style>
  </defs>
  <path id="Инстаграм_цвет_можно_изменить_" data-name="Инстаграм (цвет можно изменить)" class="cls-1" d="M511.756,8790h-8.512a5.247,5.247,0,0,0-5.242,5.24v8.52a5.247,5.247,0,0,0,5.242,5.24h8.512a5.247,5.247,0,0,0,5.243-5.24v-8.52A5.247,5.247,0,0,0,511.756,8790Zm3.558,13.76a3.556,3.556,0,0,1-3.558,3.55h-8.512a3.556,3.556,0,0,1-3.557-3.55v-8.52a3.565,3.565,0,0,1,3.557-3.56h8.512a3.564,3.564,0,0,1,3.557,3.56v8.52h0Zm-7.814-9.16a4.9,4.9,0,1,0,4.9,4.9A4.9,4.9,0,0,0,507.5,8794.6Zm0,8.11a3.21,3.21,0,1,1,3.21-3.21A3.213,3.213,0,0,1,507.5,8802.71Zm5.1-9.54a1.249,1.249,0,0,0-.873.37,1.224,1.224,0,0,0,0,1.74,1.216,1.216,0,0,0,1.747,0,1.226,1.226,0,0,0,0-1.74A1.25,1.25,0,0,0,512.6,8793.17Z" transform="translate(-498 -8790)"/>
</svg>
